# xmcd CD database file
#
# Track frame offsets:
#	150
#	20702
#	33596
#	44891
#	60233
#	73389
#	92664
#	106221
#	121038
#	140157
#	156215
#	170881
#	182751
#	201755
#	219584
#	234117
#	245396
#	263158
#	273121
#	289986
#
# Disc length: 4115 seconds
#
# Revision: 0
# Processed by: cddbd v1.5.2PL0 Copyright (c) Steve Scherf et al.
# Submitted via: CDex 1.83
#
DISCID=2f101114
DTITLE=Woody Herman - The Best Of
DYEAR=1999
DGENRE=Jazz
TTITLE0=Woodchopper's Ball
TTITLE1=Caldonia
TTITLE2=Lullaby Of Birdland
TTITLE3=Bijou
TTITLE4=Carioca
TTITLE5=Midnight Sun
TTITLE6=Northwest Passage
TTITLE7=I Cover The Waterfront
TTITLE8=Blowing Up A Storm
TTITLE9=Crazy Rhythm
TTITLE10=Wildroot
TTITLE11=The Good Earth
TTITLE12=It's Coolin' Time
TTITLE13=Sinbad The Sailor
TTITLE14=Fire Island
TTITLE15=Black Orchid
TTITLE16=Summer Sequence Pt I
TTITLE17=Summer Sequence Pt II
TTITLE18=Summer Sequence Pt III
TTITLE19=Summer Sequence Pt IV
EXTD=YEAR: 1999
EXTT0=
EXTT1=
EXTT2=
EXTT3=
EXTT4=
EXTT5=
EXTT6=
EXTT7=
EXTT8=
EXTT9=
EXTT10=
EXTT11=
EXTT12=
EXTT13=
EXTT14=
EXTT15=
EXTT16=
EXTT17=
EXTT18=
EXTT19=
PLAYORDER=
